PathFileType	4	(X/Y/Z)	_05Apr_ss_11ms_01.trc
DataRate	CameraRate	NumFrames	NumMarkers	Units	OrigDataRate	OrigDataStartFrame	OrigNumFrames
200.000000	200.000000	6	42	mm	200.000000	4954	6114
Frame#	Time	LASI			RASI			LPSI			RPSI			LTH1			LTH2			LTH3			LTH4			LMFC			LLFC			LTB1			LTB2			LTB3			LTB4			LMMAL			LLMAL			LCAL			LToe			LMT1			LMT5			RTH1			RTH2			RTH3			RTH4			RMFC			RLFC			RTB1			RTB2			RTB3			RTB4			RMMAL			RLMAL			RCAL			RToe			RMT1			RMT5			C7			T10			LACR1			RACR1			CLAV			RBack			
		X1	Y1	Z1	X2	Y2	Z2	X3	Y3	Z3	X4	Y4	Z4	X5	Y5	Z5	X6	Y6	Z6	X7	Y7	Z7	X8	Y8	Z8	X9	Y9	Z9	X10	Y10	Z10	X11	Y11	Z11	X12	Y12	Z12	X13	Y13	Z13	X14	Y14	Z14	X15	Y15	Z15	X16	Y16	Z16	X17	Y17	Z17	X18	Y18	Z18	X19	Y19	Z19	X20	Y20	Z20	X21	Y21	Z21	X22	Y22	Z22	X23	Y23	Z23	X24	Y24	Z24	X25	Y25	Z25	X26	Y26	Z26	X27	Y27	Z27	X28	Y28	Z28	X29	Y29	Z29	X30	Y30	Z30	X31	Y31	Z31	X32	Y32	Z32	X33	Y33	Z33	X34	Y34	Z34	X35	Y35	Z35	X36	Y36	Z36	X37	Y37	Z37	X38	Y38	Z38	X39	Y39	Z39	X40	Y40	Z40	X41	Y41	Z41	X42	Y42	Z42	

4954	24.76	381.56400	1004.85480	-827.48511	628.04938	1015.87370	-842.85809	470.35062	1022.94290	-654.73169	561.85107	1026.47050	-656.71295	325.11893	823.42883	-863.32886	367.32025	841.74469	-905.93701	340.53885	799.52136	-910.21503	327.67899	747.17572	-915.61670	446.51929	524.89313	-928.91779	328.31995	549.26764	-905.52905	319.30685	465.90689	-805.38971	318.97357	416.15201	-807.75262	333.72745	364.67886	-796.24622	319.66354	431.93253	-857.78033	442.03210	207.12341	-688.71582	360.47971	215.28259	-644.20490	424.79596	222.85811	-572.17102	389.67279	60.97142	-784.07416	426.79672	76.87481	-731.00037	318.98941	101.66534	-697.86871	688.75031	849.86060	-831.35242	696.20612	801.06500	-804.75104	688.80975	765.20203	-772.86469	691.18225	758.55115	-834.52374	523.16602	517.62543	-812.58911	644.13385	510.04135	-799.57489	603.95178	250.53925	-805.51672	620.50629	253.60648	-740.78394	610.89026	213.50003	-769.78558	590.37177	164.04301	-785.21332	506.36786	113.18618	-779.12415	588.91553	91.76667	-747.53839	520.15369	51.19526	-685.57355	558.36987	61.62391	-956.58551	518.16449	43.41575	-898.26288	624.76910	43.30762	-857.76465	513.75275	1506.83370	-712.38037	525.28021	1245.63490	-616.88580	333.74213	1470.73610	-748.98627	680.89520	1447.09640	-797.86694	500.83667	1411.46010	-840.99054	647.43231	1381.99690	-659.45251
4955	24.765	382.02640	1005.06870	-827.25500	628.55353	1015.82820	-842.08228	470.38931	1023.06040	-654.22113	561.80566	1026.69760	-656.16736	325.24982	824.52423	-864.17847	368.18619	842.92865	-906.16980	341.08716	800.75867	-910.84613	328.21503	748.35486	-916.63580	446.75519	526.24347	-931.22009	328.65424	550.37488	-907.68213	319.15131	464.64066	-809.01080	319.02808	414.98883	-812.36462	333.67331	363.32547	-801.74896	319.81259	431.78564	-862.08075	441.85538	203.52432	-697.50806	360.18808	210.48613	-653.24426	423.83987	216.16273	-580.41162	390.35498	60.24611	-797.31750	427.22238	74.47895	-742.41101	319.62369	98.39174	-710.33667	690.84601	849.31921	-826.77222	696.35699	801.11298	-802.47699	690.17035	765.87567	-770.25659	691.34320	758.30133	-832.00372	523.59900	517.45709	-808.44159	644.36609	510.00339	-795.12030	604.46185	250.55382	-799.95013	620.60028	253.78922	-735.57660	611.02112	213.52979	-764.42932	590.71478	164.04134	-779.90509	506.35654	113.21318	-773.64392	589.03430	91.75389	-741.58325	520.19958	51.34714	-680.08337	558.58575	61.46031	-951.00134	518.05920	43.20609	-892.96289	624.78564	43.24000	-852.16278	514.08716	1507.09280	-712.02411	525.61456	1245.84910	-616.42676	334.02264	1470.73500	-748.30890	681.19507	1447.46150	-797.48450	501.14346	1411.65390	-840.50543	647.87671	1382.16970	-659.16278
4956	24.77	382.45532	1005.22660	-826.90082	628.98059	1015.74820	-841.28412	470.39035	1023.12570	-653.71234	561.77222	1026.86730	-655.58966	325.48669	825.50415	-864.72711	368.80383	843.96259	-906.32935	341.77844	801.93396	-911.42957	328.85574	749.54181	-917.72382	446.97412	527.45428	-933.25171	328.91129	551.42847	-909.72101	319.01007	463.19662	-812.66803	319.08707	413.70673	-817.04260	333.65588	361.91742	-807.26733	319.88773	431.69095	-866.35950	441.81012	199.78912	-706.62305	359.90970	205.46748	-662.49969	423.33102	209.27544	-589.35132	390.62192	58.93559	-810.30438	427.02252	71.17924	-752.86676	319.67767	95.20994	-722.87775	690.56238	849.17706	-826.11115	696.51636	801.16803	-800.38159	690.37207	766.14191	-767.90387	691.43774	758.21924	-829.63208	523.83124	517.43549	-804.42212	644.52057	509.94467	-790.75177	604.48566	250.46915	-794.96313	620.58875	253.85651	-730.24036	610.98846	213.57184	-758.92004	590.69812	164.03525	-774.54675	506.42444	113.33310	-768.20953	589.01788	91.77515	-736.02808	520.24451	51.37883	-674.58459	558.58270	61.35506	-945.52496	518.34393	43.25558	-887.15253	624.83441	43.16488	-846.52765	514.45453	1507.16910	-711.71234	525.90649	1246.06380	-615.98566	334.31686	1470.76670	-747.67529	681.49542	1447.82910	-797.11676	501.42245	1411.78810	-840.08801	648.28339	1382.35310	-658.87317
4957	24.775	382.95908	1005.35020	-826.67426	629.43140	1015.61870	-840.48334	470.37872	1023.17550	-653.17444	561.67682	1027.00650	-654.94891	325.55173	826.41547	-865.36377	369.57211	844.89496	-906.30853	342.39511	802.90277	-911.93750	329.43475	750.66699	-918.69415	447.12738	528.52338	-935.07062	329.14133	552.31976	-911.60223	318.80658	461.61963	-816.22662	319.04584	412.32547	-821.67926	334.09521	360.44485	-813.51990	320.03067	431.18414	-870.96692	441.61664	195.98372	-715.95789	359.58075	200.42839	-671.93030	422.86249	202.27481	-598.46753	390.70560	57.48639	-822.83105	427.19574	68.28867	-766.55286	319.78485	91.80459	-735.53290	690.69043	849.13855	-824.64545	696.65015	801.20502	-798.30231	689.68439	765.95776	-765.83691	691.60394	758.03546	-827.29413	524.16107	517.21558	-800.31207	644.77771	509.93591	-786.46307	604.50385	250.31212	-789.81488	620.68799	254.05568	-725.14618	611.06250	213.58627	-753.47449	590.63428	164.06834	-769.27551	506.38885	112.87739	-761.74341	589.00153	91.88126	-730.47095	520.59851	51.62460	-669.20624	558.72498	61.32477	-939.98419	518.34198	43.14632	-880.87567	624.87463	43.15437	-840.94922	514.74054	1507.31410	-711.33832	526.21179	1246.14370	-615.55396	334.51398	1470.68790	-747.05591	681.78589	1448.04520	-796.77454	501.69247	1411.86830	-839.71381	648.63165	1382.41160	-658.53992
4958	24.78	383.30511	1005.35810	-826.37762	629.88757	1015.43480	-839.66962	470.38751	1023.14790	-652.80176	561.63214	1027.11360	-654.25714	325.73703	827.35895	-865.96552	370.43027	845.75067	-906.32703	343.13864	803.81879	-912.43317	329.99619	751.66455	-919.48962	447.37018	529.58130	-936.75446	329.32831	553.15747	-913.43433	318.59048	459.92151	-819.71637	319.00104	410.88046	-826.26215	334.16803	358.75522	-819.30676	320.24930	430.84103	-875.12512	441.47556	192.10023	-725.22351	359.24469	195.31807	-681.53571	422.18250	195.05809	-607.78918	391.08572	56.46645	-835.90729	427.39850	65.74168	-778.54755	319.71271	88.43053	-748.56561	691.14728	848.97028	-822.87958	696.80255	801.12524	-796.10834	690.81445	766.49579	-763.23395	691.76233	757.85071	-824.91217	524.43225	517.00232	-796.29102	644.94141	509.85074	-782.11133	604.69440	250.26447	-784.66858	620.73169	254.05196	-719.89825	611.16931	213.69057	-748.38379	590.75739	164.05241	-763.90955	506.42706	112.80856	-756.18616	588.96307	91.92765	-724.93323	520.49438	51.53562	-663.88373	558.61731	61.04809	-934.65558	518.34491	43.10946	-875.38721	624.85138	43.13558	-835.37787	515.05841	1507.37700	-710.99170	526.47900	1246.16830	-615.07098	334.75336	1470.55930	-746.47455	682.02301	1448.14760	-796.36993	501.94949	1411.90440	-839.36334	648.96649	1382.48000	-658.21118
4959	24.785	383.67999	1005.32600	-826.04602	630.27185	1015.15950	-838.89825	470.38153	1023.11720	-652.24945	561.50391	1027.14210	-653.49298	325.90088	827.95587	-866.58301	371.15659	846.42773	-906.38293	343.88715	804.70068	-912.87640	330.68933	752.56769	-920.23401	447.54535	530.45001	-938.14587	329.52414	553.81421	-915.07587	318.35443	458.09567	-823.23151	319.05139	409.38538	-830.99731	334.26035	356.95203	-825.14514	320.51212	430.40796	-879.31946	441.28223	187.75015	-735.45941	359.29501	190.12169	-691.59711	421.49881	187.80243	-617.29236	391.96191	56.00919	-849.71448	427.80392	63.40013	-791.62067	320.03006	84.71560	-761.27466	691.53412	848.64410	-820.98871	697.01447	801.06677	-794.04883	690.99048	766.70129	-760.99329	691.80487	757.60773	-822.57886	524.68658	516.92334	-792.14246	645.16528	509.80835	-777.82489	604.76520	250.17291	-779.52057	620.66870	254.23428	-714.77002	611.46301	213.80917	-743.30402	590.81653	163.97137	-758.51886	506.40161	112.90082	-750.74487	588.96289	92.01085	-719.34045	520.59619	51.81854	-658.33252	558.59998	60.75803	-929.20990	517.22357	43.31374	-870.78381	624.90991	43.12826	-829.77386	515.29077	1507.41690	-710.65692	526.73206	1246.18980	-614.62616	334.98105	1470.36410	-745.86578	682.36548	1448.20740	-795.97791	502.17062	1411.86110	-838.99835	649.33875	1382.47120	-657.81787
